<?xml version="1.0" standalone="no"?>
<!DOCTYPE svg PUBLIC "-//W3C//DTD SVG 20010904//EN"
 "http://www.w3.org/TR/2001/REC-SVG-20010904/DTD/svg10.dtd">
<svg version="1.0" xmlns="http://www.w3.org/2000/svg"
 width="844.000000pt" height="844.000000pt" viewBox="0 0 844.000000 844.000000"
 preserveAspectRatio="xMidYMid meet">

<g transform="translate(0.000000,844.000000) scale(0.100000,-0.100000)"
fill="#000000" stroke="none">
<path d="M4035 6624 c-16 -2 -73 -9 -125 -15 -414 -47 -857 -236 -1197 -511
-486 -392 -797 -945 -885 -1568 -19 -140 -17 -526 5 -662 87 -554 329 -1020
726 -1401 361 -345 804 -562 1316 -644 152 -24 554 -24 704 0 548 89 1017 333
1393 726 345 360 562 802 645 1312 24 150 24 552 0 704 -82 512 -299 955 -644
1316 -379 394 -846 638 -1390 724 -93 15 -482 28 -548 19z m238 -456 c13 -16
17 -39 17 -112 0 -110 -9 -128 -67 -130 -66 -1 -73 11 -73 134 0 111 4 123 45
133 30 7 58 -2 78 -25z m180 0 c13 -16 17 -39 17 -112 0 -110 -9 -128 -67
-130 -66 -1 -73 11 -73 134 0 111 4 123 45 133 30 7 58 -2 78 -25z m-343 -108
l0 -130 -25 0 c-25 0 -25 0 -25 95 0 76 -3 97 -15 101 -8 4 -15 11 -15 17 0
20 33 47 57 47 23 0 23 0 23 -130z m-680 -460 c171 -300 345 -601 384 -670
112 -194 373 -651 653 -1145 140 -247 392 -690 559 -984 167 -294 303 -535
301 -537 -1 -1 -52 -27 -112 -57 -311 -155 -637 -229 -1005 -230 -906 -3
-1738 567 -2074 1421 -323 822 -124 1773 503 2400 48 48 122 116 165 151 103
84 298 214 306 204 4 -4 148 -253 320 -553z m1984 191 c45 -45 53 -71 22 -71
-7 0 -25 13 -41 30 -27 28 -30 29 -47 14 -17 -16 -16 -17 7 -36 36 -28 32 -65
-12 -110 -45 -46 -82 -50 -118 -13 -28 27 -33 76 -12 94 11 8 18 6 31 -8 11
-12 14 -21 7 -26 -16 -9 -13 -32 5 -39 23 -9 91 61 75 77 -6 6 -19 12 -28 12
-9 0 -21 8 -27 17 -9 15 -3 25 34 63 24 25 47 45 50 45 3 0 27 -22 54 -49z
m101 -103 c40 -18 56 -56 41 -93 -17 -39 -131 -145 -157 -145 -28 0 -79 53
-79 81 0 23 136 169 158 169 6 0 23 -5 37 -12z m149 -143 c44 -40 36 -70 -41
-147 -76 -77 -106 -86 -148 -43 -40 39 -32 62 47 142 80 80 100 87 142 48z
m105 -110 c35 -17 57 -65 43 -92 -18 -34 -140 -143 -160 -143 -35 0 -72 38
-72 74 0 27 12 44 74 104 41 40 77 72 80 72 4 0 20 -7 35 -15z m270 -1274 c31
-32 64 -61 74 -65 24 -8 34 21 13 37 -11 8 -15 19 -10 30 7 20 17 21 45 7 27
-15 26 -79 -2 -109 -34 -36 -74 -23 -137 46 -43 47 -54 55 -62 43 -5 -8 -10
-25 -10 -38 0 -22 -24 -41 -37 -29 -3 3 0 36 7 72 11 60 14 65 38 65 18 0 42
-17 81 -59z m0 -132 c84 -14 111 -34 111 -79 0 -37 -42 -84 -68 -77 -9 3 -48
11 -87 17 -95 17 -115 30 -115 80 0 30 6 43 27 59 14 12 33 19 42 17 9 -2 50
-10 90 -17z m-49 -175 c101 -20 120 -33 120 -85 0 -70 -32 -81 -161 -54 -90
19 -113 37 -105 84 5 35 31 71 50 71 6 0 49 -7 96 -16z m-13 -179 c81 -16 103
-31 103 -71 0 -34 -20 -73 -41 -79 -30 -10 -190 26 -211 47 -39 39 -11 118 42
118 15 0 64 -7 107 -15z"/>
<path d="M4196 6145 c-9 -25 -7 -158 3 -174 5 -8 16 -11 25 -8 24 10 19 190
-5 195 -9 2 -19 -4 -23 -13z"/>
<path d="M4376 6145 c-9 -25 -7 -158 3 -174 5 -8 16 -11 25 -8 24 10 19 190
-5 195 -9 2 -19 -4 -23 -13z"/>
<path d="M2841 5643 c-30 -28 -34 -39 -32 -80 1 -30 143 -153 177 -153 59 0
106 68 81 116 -21 40 -145 144 -172 144 -14 0 -38 -12 -54 -27z m147 -49 c80
-73 89 -99 51 -148 -34 -43 -65 -35 -147 40 -58 53 -72 71 -72 95 0 35 42 79
74 79 12 0 53 -29 94 -66z"/>
<path d="M2864 5598 c-10 -16 123 -138 142 -131 26 10 14 31 -48 87 -64 57
-81 65 -94 44z m85 -50 c60 -54 70 -68 49 -68 -10 0 -119 96 -126 112 -10 22
25 2 77 -44z"/>
<path d="M2746 5538 c-22 -31 -21 -85 2 -97 12 -6 23 -6 28 -1 6 6 38 -17 82
-57 l73 -66 24 23 c14 13 25 27 25 31 0 9 -201 189 -211 189 -5 0 -15 -10 -23
-22z m214 -168 c0 -4 -7 -13 -15 -20 -17 -14 -22 -11 -112 74 -34 32 -45 37
-57 27 -11 -9 -16 -9 -23 1 -13 21 -11 62 5 80 14 16 22 11 108 -68 52 -48 94
-90 94 -94z"/>
<path d="M2431 5074 c-26 -33 -28 -95 -3 -117 18 -16 164 -57 205 -57 55 0 91
105 50 143 -19 16 -165 57 -206 57 -16 0 -34 -10 -46 -26z m144 -3 c98 -25
115 -36 115 -71 0 -40 -19 -78 -42 -86 -26 -8 -195 34 -215 54 -11 11 -14 27
-10 54 10 73 32 81 152 49z"/>
<path d="M2460 5021 c0 -11 8 -22 18 -25 56 -17 155 -35 163 -30 22 13 6 34
-33 44 -24 6 -59 15 -78 21 -53 14 -70 11 -70 -10z m98 -10 c72 -19 90 -27 81
-35 -7 -8 -169 36 -169 45 0 12 4 12 88 -10z"/>
<path d="M2389 4904 c-28 -30 -33 -95 -8 -120 24 -24 196 -65 226 -53 28 11
57 72 49 105 -10 38 -31 50 -120 73 -108 27 -117 26 -147 -5z m136 -5 c106
-27 119 -36 117 -84 -2 -46 -26 -75 -61 -75 -42 0 -173 38 -189 54 -30 30 -4
126 34 126 8 0 53 -10 99 -21z"/>
<path d="M2415 4860 c-13 -21 16 -37 95 -55 62 -14 83 -16 92 -7 19 19 -1 31
-83 52 -86 23 -96 24 -104 10z m175 -51 c0 -12 -4 -11 -84 9 -38 10 -71 23
-73 29 -3 7 26 3 77 -9 44 -11 80 -24 80 -29z"/>
<path d="M2374 4750 c-31 -12 -54 -49 -54 -85 1 -36 18 -61 51 -74 22 -9 21
-10 -13 -10 -27 -1 -42 -8 -57 -27 -26 -33 -28 -95 -3 -117 18 -16 164 -57
205 -57 62 0 92 109 41 149 -26 20 -26 21 -5 21 36 0 71 43 71 88 0 58 -15 70
-120 97 -52 14 -95 24 -95 24 0 0 -10 -4 -21 -9z m124 -29 c86 -23 102 -34
102 -73 0 -36 -14 -64 -40 -78 -22 -12 -168 20 -207 46 -27 17 -30 52 -8 94
19 36 47 38 153 11z m-71 -147 c-3 -3 -12 -4 -19 -1 -8 3 -5 6 6 6 11 1 17 -2
13 -5z m18 -23 c98 -25 115 -36 115 -71 0 -40 -19 -78 -42 -86 -26 -8 -195 34
-215 54 -11 11 -14 27 -10 54 10 73 32 81 152 49z m22 13 c-3 -3 -12 -4 -19
-1 -8 3 -5 6 6 6 11 1 17 -2 13 -5z m40 -10 c-3 -3 -12 -4 -19 -1 -8 3 -5 6 6
6 11 1 17 -2 13 -5z"/>
<path d="M2372 4673 c4 -21 166 -69 182 -53 19 19 -5 37 -75 53 -94 22 -111
22 -107 0z m96 -9 c67 -17 102 -34 68 -34 -28 0 -140 30 -150 41 -14 13 5 11
82 -7z"/>
<path d="M2330 4501 c0 -11 8 -22 18 -25 56 -17 155 -35 163 -30 22 13 6 34
-33 44 -24 6 -59 15 -78 21 -53 14 -70 11 -70 -10z m98 -10 c72 -19 90 -27 81
-35 -7 -8 -169 36 -169 45 0 12 4 12 88 -10z"/>
<path d="M2254 4395 c-13 -51 45 -121 70 -83 8 13 21 12 100 -8 50 -13 92 -24
93 -24 3 0 23 74 20 75 -5 4 -257 65 -267 65 -5 0 -12 -11 -16 -25z m159 -21
c89 -22 107 -30 107 -46 0 -29 -21 -31 -110 -8 -73 19 -83 19 -94 6 -13 -18
-28 -11 -45 22 -16 29 -5 65 17 58 9 -3 65 -17 125 -32z"/>
<path d="M2402 3871 c-40 -10 -81 -26 -92 -36 -29 -27 -27 -89 5 -120 28 -29
38 -30 114 -11 31 8 68 17 83 20 59 13 83 68 53 125 -24 47 -48 50 -163 22z
m142 -7 c25 -24 31 -64 15 -93 -12 -21 -30 -30 -99 -48 -108 -27 -116 -27
-140 -3 -24 24 -27 91 -6 110 17 13 147 47 188 49 15 1 34 -6 42 -15z"/>
<path d="M2415 3812 c-48 -12 -71 -22 -73 -34 -5 -27 11 -28 92 -9 81 19 103
32 92 50 -9 14 -26 13 -111 -7z m105 -2 c0 -5 -12 -12 -27 -16 -47 -10 -107
-25 -125 -30 -11 -3 -18 0 -18 8 0 8 26 20 68 30 83 19 102 21 102 8z"/>
<path d="M2446 3699 c-66 -16 -121 -31 -124 -33 -8 -8 10 -66 20 -66 6 0 16
-7 22 -15 14 -19 56 -9 56 14 0 13 20 21 84 35 46 10 88 21 94 25 16 9 0 65
-19 68 -8 1 -68 -12 -133 -28z m144 -13 c0 -21 -8 -25 -86 -41 -67 -14 -88
-22 -92 -37 -9 -34 -62 -14 -76 29 -6 18 -3 23 16 28 184 43 224 51 231 48 4
-2 7 -14 7 -27z"/>
<path d="M3138 2838 c-9 -7 -37 -50 -64 -96 -40 -70 -46 -87 -38 -109 20 -58
95 -83 135 -47 31 28 99 155 99 186 0 54 -90 99 -132 66z m97 -23 c14 -13 25
-33 25 -43 0 -11 -21 -56 -46 -101 -33 -58 -53 -83 -71 -87 -31 -8 -67 8 -88
40 -17 25 -16 28 25 103 23 43 49 86 58 96 22 25 68 21 97 -8z"/>
<path d="M3173 2788 c-6 -7 -27 -43 -47 -80 -36 -65 -39 -88 -12 -88 16 0 98
138 94 159 -4 20 -23 25 -35 9z m27 -14 c0 -16 -84 -147 -88 -136 -5 15 65
142 78 142 6 0 10 -3 10 -6z"/>
<path d="M3277 2728 c-44 -60 -87 -145 -87 -172 0 -16 10 -37 25 -50 48 -45
104 -38 133 15 33 59 39 65 35 32 -5 -30 9 -52 45 -72 9 -5 13 -13 9 -17 -4
-4 -25 2 -46 14 l-40 22 -15 -21 c-8 -12 -13 -26 -10 -30 5 -9 127 -79 137
-79 6 0 77 122 77 133 0 11 -54 35 -67 30 -17 -6 -16 2 2 37 17 33 40 41 30
11 -4 -13 2 -23 19 -35 14 -9 30 -16 35 -16 16 0 29 53 19 81 -17 51 -102 77
-140 42 -17 -15 -18 -15 -12 15 5 26 1 36 -24 62 -43 43 -92 42 -125 -2z m108
0 c18 -16 26 -36 29 -65 2 -24 0 -45 -5 -49 -5 -3 -6 2 -3 10 13 35 -6 13 -36
-41 -18 -32 -39 -66 -48 -75 -22 -26 -68 -22 -97 7 -38 37 -37 40 37 168 34
58 43 67 68 67 16 0 40 -10 55 -22z m159 -89 c26 -20 34 -60 18 -86 -10 -16
-46 12 -39 31 7 17 -18 41 -33 31 -6 -3 -19 -24 -30 -45 -21 -42 -16 -53 27
-55 40 -1 42 -18 7 -77 l-34 -57 -60 36 c-33 19 -60 39 -60 44 0 19 23 19 57
-1 35 -21 38 -21 50 -4 18 25 16 31 -12 38 -29 7 -49 39 -40 65 3 11 19 37 35
60 35 48 71 54 114 20z"/>
<path d="M3290 2635 c-39 -71 -46 -112 -17 -103 18 7 99 148 93 164 -12 31
-37 10 -76 -61z m60 46 c0 -15 -74 -141 -83 -141 -13 0 -5 19 33 87 32 58 50
77 50 54z"/>
<path d="M4703 2602 c-25 -13 -30 -21 -23 -32 16 -26 11 -31 -15 -14 -29 19
-73 12 -104 -17 -37 -34 -36 -61 6 -155 43 -97 76 -131 117 -120 34 8 76 55
76 86 l1 25 15 -27 c17 -33 28 -34 61 -8 14 11 23 20 19 20 -4 0 -2 9 4 21 16
30 4 72 -18 65 -15 -5 -25 11 -56 84 -22 49 -42 90 -45 90 -3 -1 -20 -9 -38
-18z m75 -90 c25 -58 41 -82 53 -82 24 0 28 -19 11 -52 -26 -53 -46 -37 -100
85 -46 101 -49 113 -34 125 9 7 20 11 25 9 5 -1 25 -40 45 -85z m-99 8 c10
-17 30 -61 46 -100 27 -66 27 -70 11 -94 -18 -29 -54 -41 -90 -32 -17 4 -32
26 -60 85 -20 44 -36 91 -36 105 0 35 37 66 77 66 26 0 37 -6 52 -30z"/>
<path d="M4596 2501 c-4 -5 10 -46 30 -90 27 -59 42 -81 55 -81 27 0 24 18
-15 104 -32 70 -55 92 -70 67z m59 -78 c14 -31 24 -64 23 -72 -2 -8 -17 17
-35 57 -18 40 -28 72 -23 72 5 0 20 -26 35 -57z"/>
<path d="M5427 5592 c-58 -58 -72 -92 -39 -92 26 0 136 115 129 134 -11 27
-31 18 -90 -42z"/>
<path d="M5553 5458 c-56 -58 -69 -88 -39 -88 19 0 139 127 132 139 -13 21
-32 11 -93 -51z"/>
<path d="M5682 5337 c-64 -64 -75 -87 -44 -87 26 0 136 115 129 134 -4 9 -10
16 -14 16 -5 0 -37 -28 -71 -63z"/>
<path d="M5921 3987 c-17 -22 3 -33 93 -51 81 -17 104 -12 93 17 -3 9 -33 19
-74 27 -37 6 -75 14 -84 16 -9 2 -21 -2 -28 -9z"/>
<path d="M5883 3805 c-8 -22 -2 -26 69 -41 77 -16 115 -17 124 -3 11 18 -9 28
-91 44 -98 18 -94 18 -102 0z"/>
<path d="M5852 3623 c4 -19 72 -41 143 -45 34 -3 40 0 40 17 0 15 -11 22 -60
32 -89 18 -127 17 -123 -4z"/>
</g>
</svg>
